<?xml version="1.0" encoding="utf-8"?>
<!-- Generator: Adobe Illustrator 27.0.1, SVG Export Plug-In . SVG Version: 6.00 Build 0)  -->
<svg version="1.1" id="Capa_1" xmlns="http://www.w3.org/2000/svg" xmlns:xlink="http://www.w3.org/1999/xlink" x="0px" y="0px"
	 viewBox="0 0 200.1 201.1" style="enable-background:new 0 0 200.1 201.1;" xml:space="preserve">
<style type="text/css">
	.st0{fill:#009892;}
</style>
<g>
	<g>
		<g>
			<path class="st0" d="M102.5,74.4c-0.1,0-0.2,0-0.2,0L43.3,63.2c-0.7-0.1-1.2-0.8-1-1.5c0.1-0.7,0.8-1.2,1.5-1l58.6,11.2
				l57.5-11.2c0.7-0.1,1.4,0.3,1.5,1c0.1,0.7-0.3,1.4-1,1.5l-57.7,11.2C102.6,74.4,102.5,74.4,102.5,74.4z"/>
		</g>
		<g>
			<path class="st0" d="M101.9,131.3c-0.1,0-0.2,0-0.2,0l-56.4-10.4c-0.6-0.1-1.1-0.6-1.1-1.3v-24l-12.9-3.2
				c-0.4-0.1-0.7-0.3-0.8-0.7c-0.2-0.3-0.2-0.7,0-1.1l11.9-29.3c0.3-0.7,1-1,1.7-0.7c0.7,0.3,1,1,0.7,1.7L33.4,90.3l12.4,3.1
				c0.6,0.1,1,0.7,1,1.2v23.9l55.1,10.2l54-10.2V95.4c0-0.6,0.4-1.1,0.9-1.2l12.9-3.5L159,62.4c-0.3-0.7,0.1-1.4,0.8-1.7
				c0.7-0.3,1.4,0.1,1.7,0.8l11.2,29.6c0.1,0.3,0.1,0.7-0.1,1c-0.2,0.3-0.5,0.6-0.8,0.7l-13.3,3.6v23.3c0,0.6-0.4,1.2-1,1.3
				l-55.2,10.4C102,131.3,102,131.3,101.9,131.3z"/>
		</g>
		<g>
			<path class="st0" d="M119.4,104.8c-0.5,0-0.9-0.2-1.1-0.7l-16.9-30.3c-0.3-0.6-0.1-1.4,0.5-1.8c0.6-0.3,1.4-0.1,1.8,0.5L120,102
				l28.7-7.3c0.7-0.2,1.4,0.2,1.6,0.9c0.2,0.7-0.2,1.4-0.9,1.6l-29.6,7.5C119.6,104.7,119.5,104.8,119.4,104.8z"/>
		</g>
		<g>
			<path class="st0" d="M101.9,131.3c-0.7,0-1.3-0.5-1.3-1.2l-2-47.4l-16.3,23.1c-0.3,0.5-0.9,0.6-1.4,0.5l-30.4-9
				c-0.7-0.2-1.1-0.9-0.9-1.6c0.2-0.7,0.9-1.1,1.6-0.9l29.5,8.8l17.9-25.4c0.3-0.4,0.9-0.6,1.4-0.5c0.5,0.2,0.9,0.6,0.9,1.2
				l2.1,51.2C103.2,130.7,102.6,131.3,101.9,131.3C101.9,131.3,101.9,131.3,101.9,131.3z"/>
		</g>
	</g>
	<g>
		<g>
			<path class="st0" d="M45,166l8-8.5c0.4-0.4,0.7-0.8,1.1-1.2c0.4-0.4,0.7-0.8,1-1.3c0.3-0.5,0.5-0.9,0.7-1.4
				c0.2-0.5,0.3-1,0.3-1.6c0-1.3-0.4-2.2-1.2-2.9c-0.8-0.7-1.8-1.1-3.1-1.1c-1.1,0-2,0.3-2.8,1c-0.8,0.6-1.3,1.5-1.5,2.5l-2.1-0.2
				c0.3-1.7,1.1-2.9,2.3-3.7c1.2-0.8,2.6-1.2,4.2-1.2c0.8,0,1.6,0.1,2.4,0.4s1.4,0.6,2,1.1c0.6,0.5,1,1,1.3,1.7
				c0.3,0.7,0.5,1.4,0.5,2.3c0,0.8-0.1,1.6-0.4,2.3c-0.3,0.7-0.6,1.4-1,2c-0.4,0.6-0.9,1.2-1.4,1.8s-1.1,1.1-1.6,1.7l-6.7,6.9h11.3
				v1.6H45V166z"/>
		</g>
		<g>
			<path class="st0" d="M72.5,162.9h-9.3v-2.1l8.6-14h2.5v14.5h3.3v1.6h-3.3v5.3h-1.8V162.9z M72.5,148.7L72.5,148.7l-7.6,12.5h7.6
				V148.7z"/>
		</g>
		<g>
			<path class="st0" d="M90.8,145.6l1.6,0.5l-9.2,23.1l-1.6-0.5L90.8,145.6z"/>
		</g>
		<g>
			<path class="st0" d="M109,148.4l-8.5,19.8h-2l8.7-19.8H96.8v-1.6H109V148.4z"/>
		</g>
		<g>
			<path class="st0" d="M115.5,166l8-8.5c0.4-0.4,0.7-0.8,1.1-1.2c0.4-0.4,0.7-0.8,1-1.3c0.3-0.5,0.5-0.9,0.7-1.4
				c0.2-0.5,0.3-1,0.3-1.6c0-1.3-0.4-2.2-1.2-2.9c-0.8-0.7-1.8-1.1-3.1-1.1c-1.1,0-2,0.3-2.8,1s-1.3,1.5-1.5,2.5l-2.1-0.2
				c0.3-1.7,1.1-2.9,2.3-3.7c1.2-0.8,2.6-1.2,4.2-1.2c0.8,0,1.6,0.1,2.4,0.4s1.4,0.6,2,1.1c0.6,0.5,1,1,1.3,1.7
				c0.3,0.7,0.5,1.4,0.5,2.3c0,0.8-0.1,1.6-0.4,2.3c-0.3,0.7-0.6,1.4-1,2c-0.4,0.6-0.9,1.2-1.4,1.8s-1.1,1.1-1.6,1.7l-6.7,6.9h11.3
				v1.6h-13.3V166z"/>
		</g>
		<g>
			<path class="st0" d="M135.5,145.3h1.8v11.3h0.1c0.4-0.8,1-1.4,1.8-2c0.8-0.6,1.8-0.8,3-0.8c1.1,0,2,0.2,2.7,0.5
				c0.7,0.3,1.2,0.8,1.6,1.3s0.7,1.2,0.8,1.9c0.2,0.7,0.2,1.5,0.2,2.2v8.3h-1.8v-8.2c0-0.6-0.1-1.1-0.2-1.7c-0.1-0.5-0.3-1-0.5-1.4
				c-0.3-0.4-0.6-0.8-1.1-1c-0.5-0.3-1-0.4-1.8-0.4c-0.7,0-1.3,0.1-1.9,0.3c-0.6,0.2-1.1,0.6-1.5,1.1c-0.4,0.5-0.8,1.1-1,1.8
				c-0.3,0.7-0.4,1.6-0.4,2.5v7h-1.8V145.3z"/>
		</g>
	</g>
	<g>
		<path class="st0" d="M62.5,59.6c-0.2,0-0.3,0-0.5-0.1c-0.7-0.3-1-1-0.7-1.7c0.1-0.2,10-24.6,39.2-24.6c29.2,0,37.8,24.4,37.9,24.7
			c0.2,0.7-0.1,1.4-0.8,1.6c-0.7,0.2-1.4-0.1-1.6-0.8c-0.3-0.9-8.1-22.9-35.5-22.9c-27.4,0-36.5,22-36.8,23
			C63.5,59.3,63,59.6,62.5,59.6z"/>
	</g>
	<g>
		<path class="st0" d="M101.5,63.6c-0.5,0-1-0.3-1.2-0.9l-6.7-19.8c-0.2-0.7,0.1-1.4,0.8-1.6c0.7-0.2,1.4,0.1,1.6,0.8l6.3,18.7
			l15.6-3.7c0.7-0.2,1.4,0.3,1.6,1c0.2,0.7-0.3,1.4-1,1.6l-16.8,4C101.7,63.6,101.6,63.6,101.5,63.6z"/>
	</g>
</g>
</svg>
