<?xml version="1.0" encoding="utf-8"?>
<!-- Generator: Adobe Illustrator 27.0.1, SVG Export Plug-In . SVG Version: 6.00 Build 0)  -->
<svg version="1.1" id="Capa_1" xmlns="http://www.w3.org/2000/svg" xmlns:xlink="http://www.w3.org/1999/xlink" x="0px" y="0px"
	 viewBox="0 0 200.1 201.1" style="enable-background:new 0 0 200.1 201.1;" xml:space="preserve">
<style type="text/css">
	.st0{fill:#009892;}
</style>
<g>
	<g>
		<g>
			<path class="st0" d="M35.6,134h1.7l4.5,10.3l4.5-10.3h1.6v12.3h-1.1v-10.8h0l-4.7,10.8h-0.5l-4.8-10.8h0v10.8h-1.1
				C35.6,146.3,35.6,134,35.6,134z"/>
		</g>
		<g>
			<path class="st0" d="M61.6,141.6c0,0.7-0.1,1.3-0.2,1.9c-0.2,0.6-0.4,1.1-0.8,1.6c-0.4,0.5-0.8,0.8-1.4,1.1
				c-0.6,0.3-1.3,0.4-2.1,0.4s-1.5-0.1-2.1-0.4c-0.6-0.3-1-0.6-1.4-1.1s-0.6-1-0.8-1.6c-0.2-0.6-0.2-1.2-0.2-1.9V134h1.1v7.3
				c0,0.4,0,0.9,0.1,1.4s0.2,1,0.5,1.4s0.6,0.8,1,1.1c0.4,0.3,1,0.4,1.7,0.4c0.7,0,1.3-0.1,1.7-0.4c0.4-0.3,0.8-0.6,1-1.1
				c0.2-0.4,0.4-0.9,0.5-1.4c0.1-0.5,0.1-1,0.1-1.4V134h1.1V141.6z"/>
		</g>
		<g>
			<path class="st0" d="M66.5,134H74v1h-6.4v4.4h6v1h-6v4.8h6.6v1h-7.8C66.5,146.3,66.5,134,66.5,134z"/>
		</g>
		<g>
			<path class="st0" d="M78.8,144c0.3,0.5,0.7,0.9,1.2,1.2s1,0.4,1.6,0.4c0.4,0,0.7-0.1,1.1-0.2c0.3-0.1,0.6-0.3,0.9-0.5
				c0.2-0.2,0.4-0.5,0.6-0.8c0.1-0.3,0.2-0.6,0.2-1c0-0.4-0.1-0.8-0.3-1.1c-0.2-0.3-0.4-0.5-0.7-0.7c-0.3-0.2-0.6-0.3-1-0.5
				c-0.4-0.1-0.8-0.3-1.2-0.4c-0.4-0.1-0.8-0.3-1.2-0.4c-0.4-0.2-0.7-0.4-1-0.6c-0.3-0.3-0.5-0.6-0.7-1c-0.2-0.4-0.3-0.9-0.3-1.5
				c0-0.5,0.1-1,0.3-1.4c0.2-0.4,0.5-0.8,0.9-1.1c0.4-0.3,0.8-0.5,1.3-0.6c0.5-0.1,1-0.2,1.5-0.2c0.7,0,1.3,0.1,1.9,0.4
				c0.6,0.2,1.1,0.6,1.5,1.2l-1,0.7c-0.3-0.4-0.6-0.7-1-0.9c-0.4-0.2-0.9-0.3-1.4-0.3c-0.4,0-0.7,0-1.1,0.2
				c-0.3,0.1-0.6,0.2-0.9,0.4c-0.2,0.2-0.4,0.4-0.6,0.7c-0.2,0.3-0.2,0.6-0.2,1c0,0.6,0.2,1.1,0.5,1.4c0.3,0.3,0.7,0.6,1.2,0.8
				c0.5,0.2,1,0.4,1.5,0.5c0.5,0.1,1.1,0.3,1.5,0.6c0.5,0.2,0.9,0.6,1.2,1c0.3,0.4,0.5,1,0.5,1.8c0,0.6-0.1,1.1-0.3,1.5
				c-0.2,0.4-0.5,0.8-0.8,1.1c-0.4,0.3-0.8,0.5-1.2,0.7s-0.9,0.2-1.4,0.2c-0.8,0-1.6-0.1-2.2-0.4c-0.7-0.3-1.3-0.8-1.8-1.4L78.8,144
				z"/>
		</g>
		<g>
			<path class="st0" d="M92.6,135.1h-4.2v-1h9.5v1h-4.2v11.2h-1.1V135.1z"/>
		</g>
		<g>
			<path class="st0" d="M101.6,134h3.2c0.2,0,0.4,0,0.7,0s0.6,0,0.9,0.1c0.3,0.1,0.7,0.2,1,0.3c0.3,0.1,0.6,0.3,0.9,0.5
				c0.3,0.2,0.5,0.5,0.7,0.9c0.2,0.4,0.3,0.8,0.3,1.4c0,0.6-0.1,1.1-0.3,1.5c-0.2,0.4-0.5,0.7-0.8,0.9s-0.6,0.4-1,0.5
				c-0.4,0.1-0.7,0.2-1.1,0.2l3.6,5.9h-1.3l-3.5-5.8h-2.1v5.8h-1.1L101.6,134L101.6,134z M102.7,139.4h2.4c0.6,0,1.1-0.1,1.5-0.2
				c0.4-0.2,0.7-0.3,0.9-0.6c0.2-0.2,0.4-0.5,0.4-0.7c0.1-0.3,0.1-0.5,0.1-0.7c0-0.2,0-0.4-0.1-0.7c-0.1-0.3-0.2-0.5-0.4-0.7
				c-0.2-0.2-0.5-0.4-0.9-0.6c-0.4-0.2-0.9-0.2-1.5-0.2h-2.4V139.4z"/>
		</g>
		<g>
			<path class="st0" d="M117.3,134h1.2l5.2,12.3h-1.3l-1.3-3.3h-6.5l-1.4,3.3H112L117.3,134z M117.9,135.3L115,142h5.6L117.9,135.3z
				"/>
		</g>
		<g>
			<path class="st0" d="M127.5,144c0.3,0.5,0.7,0.9,1.2,1.2s1,0.4,1.6,0.4c0.4,0,0.7-0.1,1.1-0.2c0.3-0.1,0.6-0.3,0.9-0.5
				c0.2-0.2,0.4-0.5,0.6-0.8c0.1-0.3,0.2-0.6,0.2-1c0-0.4-0.1-0.8-0.3-1.1c-0.2-0.3-0.4-0.5-0.7-0.7c-0.3-0.2-0.6-0.3-1-0.5
				c-0.4-0.1-0.8-0.3-1.2-0.4c-0.4-0.1-0.8-0.3-1.2-0.4c-0.4-0.2-0.7-0.4-1-0.6c-0.3-0.3-0.5-0.6-0.7-1c-0.2-0.4-0.3-0.9-0.3-1.5
				c0-0.5,0.1-1,0.3-1.4c0.2-0.4,0.5-0.8,0.9-1.1c0.4-0.3,0.8-0.5,1.3-0.6c0.5-0.1,1-0.2,1.5-0.2c0.7,0,1.3,0.1,1.9,0.4
				c0.6,0.2,1.1,0.6,1.5,1.2l-1,0.7c-0.3-0.4-0.6-0.7-1-0.9c-0.4-0.2-0.9-0.3-1.4-0.3c-0.4,0-0.7,0-1.1,0.2
				c-0.3,0.1-0.6,0.2-0.9,0.4c-0.2,0.2-0.4,0.4-0.6,0.7c-0.2,0.3-0.2,0.6-0.2,1c0,0.6,0.2,1.1,0.5,1.4s0.7,0.6,1.2,0.8
				c0.5,0.2,1,0.4,1.5,0.5c0.5,0.1,1.1,0.3,1.5,0.6s0.9,0.6,1.2,1c0.3,0.4,0.5,1,0.5,1.8c0,0.6-0.1,1.1-0.3,1.5
				c-0.2,0.4-0.5,0.8-0.8,1.1c-0.4,0.3-0.8,0.5-1.2,0.7c-0.5,0.2-0.9,0.2-1.4,0.2c-0.8,0-1.6-0.1-2.2-0.4c-0.7-0.3-1.3-0.8-1.8-1.4
				L127.5,144z"/>
		</g>
		<g>
			<path class="st0" d="M144.8,134h7.5v1h-6.4v4.4h6v1h-6v4.8h6.6v1h-7.8V134z"/>
		</g>
		<g>
			<path class="st0" d="M156.8,134h1.5l7.5,10.8h0V134h1.1v12.3h-1.5l-7.5-10.8h0v10.8h-1.1V134z"/>
		</g>
		<g>
			<path class="st0" d="M50.7,156h-4.2v-1.1H56v1h-4.2v11.2h-1.1L50.7,156L50.7,156z"/>
		</g>
		<g>
			<path class="st0" d="M58.9,161.1c0-0.9,0.2-1.8,0.5-2.6c0.3-0.8,0.7-1.5,1.3-2c0.5-0.6,1.2-1,2-1.3c0.8-0.3,1.6-0.5,2.6-0.5
				c0.9,0,1.8,0.2,2.6,0.5c0.8,0.3,1.4,0.8,2,1.3c0.6,0.6,1,1.2,1.3,2c0.3,0.8,0.5,1.6,0.5,2.6s-0.2,1.8-0.5,2.6
				c-0.3,0.8-0.7,1.5-1.3,2c-0.6,0.6-1.2,1-2,1.3c-0.8,0.3-1.6,0.5-2.6,0.5c-0.9,0-1.8-0.2-2.6-0.5c-0.8-0.3-1.4-0.8-2-1.3
				c-0.6-0.6-1-1.2-1.3-2C59,162.9,58.9,162,58.9,161.1z M60,161.1c0,0.8,0.1,1.5,0.4,2.1c0.2,0.7,0.6,1.2,1,1.7
				c0.5,0.5,1,0.9,1.6,1.1c0.6,0.3,1.4,0.4,2.2,0.4c0.8,0,1.5-0.1,2.2-0.4c0.6-0.3,1.2-0.7,1.6-1.1c0.5-0.5,0.8-1.1,1-1.7
				c0.2-0.7,0.4-1.4,0.4-2.1c0-0.8-0.1-1.5-0.4-2.1c-0.2-0.7-0.6-1.2-1-1.7c-0.5-0.5-1-0.9-1.6-1.1c-0.6-0.3-1.4-0.4-2.2-0.4
				c-0.8,0-1.5,0.1-2.2,0.4s-1.2,0.7-1.6,1.1c-0.5,0.5-0.8,1.1-1,1.7C60.1,159.6,60,160.3,60,161.1z"/>
		</g>
		<g>
			<path class="st0" d="M75.7,154.9h3.8c1.1,0,2,0.1,2.7,0.4c0.7,0.3,1.4,0.6,1.8,1c0.5,0.4,0.9,0.9,1.2,1.3c0.3,0.5,0.5,1,0.6,1.4
				s0.2,0.9,0.2,1.2c0,0.4,0.1,0.6,0.1,0.8s0,0.4-0.1,0.8c0,0.4-0.1,0.8-0.2,1.2c-0.1,0.5-0.3,0.9-0.6,1.4c-0.3,0.5-0.7,0.9-1.2,1.3
				c-0.5,0.4-1.1,0.7-1.8,1c-0.7,0.3-1.6,0.4-2.7,0.4h-3.8V154.9z M76.8,166.2h2.4c0.8,0,1.6-0.1,2.3-0.3c0.7-0.2,1.3-0.5,1.8-0.9
				c0.5-0.4,0.9-0.9,1.2-1.6c0.3-0.6,0.5-1.4,0.5-2.3c0-0.9-0.2-1.6-0.5-2.3c-0.3-0.6-0.7-1.2-1.2-1.6c-0.5-0.4-1.1-0.7-1.8-0.9
				c-0.7-0.2-1.5-0.3-2.3-0.3h-2.4V166.2z"/>
		</g>
		<g>
			<path class="st0" d="M89.6,161.1c0-0.9,0.2-1.8,0.5-2.6c0.3-0.8,0.7-1.5,1.3-2c0.5-0.6,1.2-1,2-1.3c0.8-0.3,1.6-0.5,2.6-0.5
				c0.9,0,1.8,0.2,2.6,0.5c0.8,0.3,1.4,0.8,2,1.3c0.6,0.6,1,1.2,1.3,2c0.3,0.8,0.5,1.6,0.5,2.6s-0.2,1.8-0.5,2.6
				c-0.3,0.8-0.7,1.5-1.3,2c-0.6,0.6-1.2,1-2,1.3c-0.8,0.3-1.6,0.5-2.6,0.5c-0.9,0-1.8-0.2-2.6-0.5s-1.4-0.8-2-1.3
				c-0.6-0.6-1-1.2-1.3-2C89.8,162.9,89.6,162,89.6,161.1z M90.8,161.1c0,0.8,0.1,1.5,0.4,2.1c0.2,0.7,0.6,1.2,1,1.7s1,0.9,1.6,1.1
				c0.6,0.3,1.4,0.4,2.2,0.4c0.8,0,1.5-0.1,2.2-0.4s1.2-0.7,1.6-1.1s0.8-1.1,1-1.7c0.2-0.7,0.4-1.4,0.4-2.1c0-0.8-0.1-1.5-0.4-2.1
				c-0.2-0.7-0.6-1.2-1-1.7c-0.4-0.5-1-0.9-1.6-1.1c-0.6-0.3-1.4-0.4-2.2-0.4c-0.8,0-1.5,0.1-2.2,0.4c-0.6,0.3-1.2,0.7-1.6,1.1
				c-0.5,0.5-0.8,1.1-1,1.7C90.9,159.6,90.8,160.3,90.8,161.1z"/>
		</g>
		<g>
			<path class="st0" d="M106.9,164.9c0.3,0.5,0.7,0.9,1.2,1.2s1,0.4,1.6,0.4c0.4,0,0.7-0.1,1.1-0.2c0.3-0.1,0.6-0.3,0.9-0.5
				c0.2-0.2,0.4-0.5,0.6-0.8c0.1-0.3,0.2-0.6,0.2-1c0-0.4-0.1-0.8-0.3-1.1c-0.2-0.3-0.4-0.5-0.7-0.7c-0.3-0.2-0.6-0.3-1-0.5
				c-0.4-0.1-0.8-0.3-1.2-0.4c-0.4-0.1-0.8-0.3-1.2-0.4c-0.4-0.2-0.7-0.4-1-0.6c-0.3-0.3-0.5-0.6-0.7-1c-0.2-0.4-0.3-0.9-0.3-1.5
				c0-0.5,0.1-1,0.3-1.4c0.2-0.4,0.5-0.8,0.9-1.1c0.4-0.3,0.8-0.5,1.3-0.6c0.5-0.1,1-0.2,1.5-0.2c0.7,0,1.3,0.1,1.9,0.4
				c0.6,0.2,1.1,0.6,1.5,1.2l-1,0.7c-0.3-0.4-0.6-0.7-1-0.9c-0.4-0.2-0.9-0.3-1.4-0.3c-0.4,0-0.7,0-1.1,0.2s-0.6,0.2-0.9,0.4
				c-0.2,0.2-0.4,0.4-0.6,0.7c-0.2,0.3-0.2,0.6-0.2,1c0,0.6,0.2,1.1,0.5,1.4c0.3,0.3,0.7,0.6,1.2,0.8c0.5,0.2,1,0.4,1.5,0.5
				c0.5,0.1,1.1,0.3,1.5,0.6c0.5,0.2,0.9,0.6,1.2,1c0.3,0.4,0.5,1,0.5,1.8c0,0.6-0.1,1.1-0.3,1.5c-0.2,0.4-0.5,0.8-0.8,1.1
				c-0.4,0.3-0.8,0.5-1.2,0.7s-0.9,0.2-1.4,0.2c-0.8,0-1.6-0.1-2.2-0.4c-0.7-0.3-1.3-0.8-1.8-1.4L106.9,164.9z"/>
		</g>
		<g>
			<path class="st0" d="M127,156h-4.2v-1.1h9.5v1h-4.2v11.2H127L127,156L127,156z"/>
		</g>
		<g>
			<path class="st0" d="M144.6,162.5c0,0.7-0.1,1.3-0.2,1.9c-0.2,0.6-0.4,1.1-0.8,1.6c-0.4,0.5-0.8,0.8-1.4,1.1
				c-0.6,0.3-1.3,0.4-2.1,0.4c-0.8,0-1.5-0.1-2.1-0.4c-0.6-0.3-1-0.6-1.4-1.1s-0.6-1-0.8-1.6c-0.2-0.6-0.2-1.2-0.2-1.9v-7.6h1.1v7.3
				c0,0.4,0,0.9,0.1,1.4c0.1,0.5,0.2,1,0.5,1.4c0.2,0.4,0.6,0.8,1,1.1c0.4,0.3,1,0.4,1.7,0.4c0.7,0,1.3-0.1,1.7-0.4
				c0.4-0.3,0.8-0.6,1-1.1c0.2-0.4,0.4-0.9,0.5-1.4c0.1-0.5,0.1-1,0.1-1.4v-7.3h1.1V162.5z"/>
		</g>
		<g>
			<path class="st0" d="M149.8,164.9c0.3,0.5,0.7,0.9,1.2,1.2s1,0.4,1.6,0.4c0.4,0,0.7-0.1,1.1-0.2c0.3-0.1,0.6-0.3,0.9-0.5
				c0.2-0.2,0.4-0.5,0.6-0.8c0.1-0.3,0.2-0.6,0.2-1c0-0.4-0.1-0.8-0.3-1.1c-0.2-0.3-0.4-0.5-0.7-0.7c-0.3-0.2-0.6-0.3-1-0.5
				c-0.4-0.1-0.8-0.3-1.2-0.4c-0.4-0.1-0.8-0.3-1.2-0.4c-0.4-0.2-0.7-0.4-1-0.6c-0.3-0.3-0.5-0.6-0.7-1c-0.2-0.4-0.3-0.9-0.3-1.5
				c0-0.5,0.1-1,0.3-1.4c0.2-0.4,0.5-0.8,0.9-1.1c0.4-0.3,0.8-0.5,1.3-0.6c0.5-0.1,1-0.2,1.5-0.2c0.7,0,1.3,0.1,1.9,0.4
				c0.6,0.2,1.1,0.6,1.5,1.2l-1,0.7c-0.3-0.4-0.6-0.7-1-0.9c-0.4-0.2-0.9-0.3-1.4-0.3c-0.4,0-0.7,0-1.1,0.2
				c-0.3,0.1-0.6,0.2-0.9,0.4c-0.2,0.2-0.4,0.4-0.6,0.7c-0.2,0.3-0.2,0.6-0.2,1c0,0.6,0.2,1.1,0.5,1.4c0.3,0.3,0.7,0.6,1.2,0.8
				c0.5,0.2,1,0.4,1.5,0.5c0.5,0.1,1.1,0.3,1.5,0.6s0.9,0.6,1.2,1c0.3,0.4,0.5,1,0.5,1.8c0,0.6-0.1,1.1-0.3,1.5
				c-0.2,0.4-0.5,0.8-0.8,1.1c-0.4,0.3-0.8,0.5-1.2,0.7c-0.5,0.2-0.9,0.2-1.4,0.2c-0.8,0-1.6-0.1-2.2-0.4c-0.7-0.3-1.3-0.8-1.8-1.4
				L149.8,164.9z"/>
		</g>
		<g>
			<path class="st0" d="M58,174.5h3.5c0.4,0,0.9,0,1.3,0.2c0.5,0.1,0.9,0.3,1.3,0.5c0.4,0.2,0.7,0.6,1,1c0.2,0.4,0.4,1,0.4,1.6
				c0,0.6-0.1,1-0.3,1.4c-0.2,0.4-0.5,0.7-0.8,1c-0.3,0.3-0.7,0.5-1.2,0.6c-0.4,0.1-0.9,0.2-1.4,0.2h-2.7v5.8H58V174.5z M59.1,179.9
				h2.6c0.3,0,0.6,0,1-0.1c0.3-0.1,0.6-0.2,0.8-0.4c0.2-0.2,0.4-0.4,0.6-0.7c0.2-0.3,0.2-0.6,0.2-1c0-0.4-0.1-0.7-0.2-1
				c-0.2-0.3-0.4-0.5-0.6-0.7c-0.2-0.2-0.5-0.3-0.9-0.4c-0.3-0.1-0.6-0.1-1-0.1h-2.5L59.1,179.9L59.1,179.9z"/>
		</g>
		<g>
			<path class="st0" d="M69.7,174.5h7.5v1h-6.4v4.4h6v1h-6v4.8h6.6v1h-7.8V174.5z"/>
		</g>
		<g>
			<path class="st0" d="M81.5,174.5h3.8c1.1,0,2,0.1,2.7,0.4c0.7,0.3,1.4,0.6,1.8,1c0.5,0.4,0.9,0.9,1.2,1.3c0.3,0.5,0.5,1,0.6,1.4
				c0.1,0.5,0.2,0.9,0.2,1.2c0,0.4,0.1,0.6,0.1,0.8s0,0.4-0.1,0.8c0,0.4-0.1,0.8-0.2,1.2c-0.1,0.5-0.3,0.9-0.6,1.4
				c-0.3,0.5-0.7,0.9-1.2,1.3c-0.5,0.4-1.1,0.7-1.8,1c-0.7,0.3-1.6,0.4-2.7,0.4h-3.8V174.5z M82.6,185.7H85c0.8,0,1.6-0.1,2.3-0.3
				c0.7-0.2,1.3-0.5,1.8-0.9c0.5-0.4,0.9-0.9,1.2-1.6c0.3-0.6,0.5-1.4,0.5-2.3c0-0.9-0.2-1.6-0.5-2.3c-0.3-0.6-0.7-1.2-1.2-1.6
				c-0.5-0.4-1.1-0.7-1.8-0.9c-0.7-0.2-1.5-0.3-2.3-0.3h-2.4V185.7z"/>
		</g>
		<g>
			<path class="st0" d="M96.2,174.5h1.1v12.3h-1.1V174.5z"/>
		</g>
		<g>
			<path class="st0" d="M102.3,174.5h3.8c1.1,0,2,0.1,2.7,0.4c0.7,0.3,1.4,0.6,1.8,1c0.5,0.4,0.9,0.9,1.2,1.3c0.3,0.5,0.5,1,0.6,1.4
				c0.1,0.5,0.2,0.9,0.2,1.2c0,0.4,0.1,0.6,0.1,0.8s0,0.4-0.1,0.8c0,0.4-0.1,0.8-0.2,1.2c-0.1,0.5-0.3,0.9-0.6,1.4
				c-0.3,0.5-0.7,0.9-1.2,1.3c-0.5,0.4-1.1,0.7-1.8,1c-0.7,0.3-1.6,0.4-2.7,0.4h-3.8V174.5z M103.5,185.7h2.4c0.8,0,1.6-0.1,2.3-0.3
				c0.7-0.2,1.3-0.5,1.8-0.9c0.5-0.4,0.9-0.9,1.2-1.6c0.3-0.6,0.5-1.4,0.5-2.3c0-0.9-0.2-1.6-0.5-2.3c-0.3-0.6-0.7-1.2-1.2-1.6
				c-0.5-0.4-1.1-0.7-1.8-0.9c-0.7-0.2-1.5-0.3-2.3-0.3h-2.4V185.7z"/>
		</g>
		<g>
			<path class="st0" d="M116.3,180.6c0-0.9,0.2-1.8,0.5-2.6c0.3-0.8,0.7-1.5,1.3-2c0.5-0.6,1.2-1,2-1.3c0.8-0.3,1.6-0.5,2.6-0.5
				c0.9,0,1.8,0.2,2.6,0.5c0.8,0.3,1.4,0.8,2,1.3c0.6,0.6,1,1.2,1.3,2c0.3,0.8,0.5,1.6,0.5,2.6s-0.2,1.8-0.5,2.6
				c-0.3,0.8-0.7,1.5-1.3,2c-0.6,0.6-1.2,1-2,1.3c-0.8,0.3-1.6,0.5-2.6,0.5c-0.9,0-1.8-0.2-2.6-0.5c-0.8-0.3-1.4-0.8-2-1.3
				c-0.6-0.6-1-1.2-1.3-2C116.4,182.4,116.3,181.6,116.3,180.6z M117.4,180.6c0,0.8,0.1,1.5,0.4,2.1c0.2,0.7,0.6,1.2,1,1.7
				c0.5,0.5,1,0.9,1.6,1.1c0.6,0.3,1.4,0.4,2.2,0.4c0.8,0,1.5-0.1,2.2-0.4c0.6-0.3,1.2-0.7,1.6-1.1s0.8-1.1,1-1.7
				c0.2-0.7,0.4-1.4,0.4-2.1c0-0.8-0.1-1.5-0.4-2.1c-0.2-0.7-0.6-1.2-1-1.7c-0.4-0.5-1-0.9-1.6-1.1c-0.6-0.3-1.4-0.4-2.2-0.4
				c-0.8,0-1.5,0.1-2.2,0.4c-0.6,0.3-1.2,0.7-1.6,1.1c-0.5,0.5-0.8,1.1-1,1.7C117.5,179.2,117.4,179.9,117.4,180.6z"/>
		</g>
		<g>
			<path class="st0" d="M133.6,184.5c0.3,0.5,0.7,0.9,1.2,1.2s1,0.4,1.6,0.4c0.4,0,0.7-0.1,1.1-0.2c0.3-0.1,0.6-0.3,0.9-0.5
				c0.2-0.2,0.4-0.5,0.6-0.8c0.1-0.3,0.2-0.6,0.2-1c0-0.4-0.1-0.8-0.3-1.1c-0.2-0.3-0.4-0.5-0.7-0.7c-0.3-0.2-0.6-0.3-1-0.5
				c-0.4-0.1-0.8-0.3-1.2-0.4s-0.8-0.3-1.2-0.4c-0.4-0.2-0.7-0.4-1-0.6c-0.3-0.3-0.5-0.6-0.7-1c-0.2-0.4-0.3-0.9-0.3-1.5
				c0-0.5,0.1-1,0.3-1.4c0.2-0.4,0.5-0.8,0.9-1.1c0.4-0.3,0.8-0.5,1.3-0.6c0.5-0.1,1-0.2,1.5-0.2c0.7,0,1.3,0.1,1.9,0.4
				c0.6,0.2,1.1,0.6,1.5,1.2l-1,0.7c-0.3-0.4-0.6-0.7-1-0.9c-0.4-0.2-0.9-0.3-1.4-0.3c-0.4,0-0.7,0-1.1,0.2
				c-0.3,0.1-0.6,0.2-0.9,0.4c-0.2,0.2-0.4,0.4-0.6,0.7c-0.2,0.3-0.2,0.6-0.2,1c0,0.6,0.2,1.1,0.5,1.4c0.3,0.3,0.7,0.6,1.2,0.8
				c0.5,0.2,1,0.4,1.5,0.5c0.5,0.1,1.1,0.3,1.5,0.6s0.9,0.6,1.2,1c0.3,0.4,0.5,1,0.5,1.8c0,0.6-0.1,1.1-0.3,1.5
				c-0.2,0.4-0.5,0.8-0.8,1.1c-0.4,0.3-0.8,0.5-1.2,0.7c-0.5,0.2-0.9,0.2-1.4,0.2c-0.8,0-1.6-0.1-2.2-0.4c-0.7-0.3-1.3-0.8-1.8-1.4
				L133.6,184.5z"/>
		</g>
	</g>
	<g>
		<g>
			<path class="st0" d="M84.5,36.6H47.8c-0.7,0-1.2-0.6-1.2-1.2c0-0.7,0.6-1.2,1.2-1.2h36.7c0.7,0,1.2,0.6,1.2,1.2
				C85.8,36.1,85.2,36.6,84.5,36.6z"/>
		</g>
		<g>
			<path class="st0" d="M76.4,120.2h-20c-0.7,0-1.2-0.6-1.2-1.2v-10.7c-0.6-0.5-1.2-1.4-1.2-2.8c0-1.7-5.2-51.1-7.2-70l0-3.1
				c0-0.7,0.6-1.2,1.2-1.2h36.7c0.7,0,1.2,0.6,1.2,1.2v3.3l-7.3,69.6c0,0.4-0.1,1.8-0.8,2.8c-0.1,4.6-0.2,9.6-0.1,10.6
				c0,0.1,0,0.2,0,0.3C77.7,119.7,77.1,120.2,76.4,120.2z M57.6,117.7h17.4c0-1.6,0-4.6,0.2-10.2c0-0.4,0.2-0.8,0.6-1
				c0.1-0.1,0.2-0.8,0.2-1.3l7.3-69.6v-1.9H49.2v1.7c0.7,6.9,7.2,68.4,7.2,70.1c0,0.6,0.3,0.8,0.3,0.8c0.6,0.1,0.9,0.6,0.9,1.2
				V117.7z"/>
		</g>
		<g>
			<path class="st0" d="M76.6,108.8H56.5c-0.7,0-1.2-0.6-1.2-1.2c0-0.7,0.6-1.2,1.2-1.2h20.1c0.7,0,1.2,0.6,1.2,1.2
				C77.8,108.2,77.3,108.8,76.6,108.8z"/>
		</g>
	</g>
	<g>
		<g>
			<path class="st0" d="M147.5,120.2h-9.8c-2.3,0-4.2-1.8-4.2-4V77.8c0-2.2,1.9-4,4.2-4h9.8c2.3,0,4.2,1.8,4.2,4v38.3
				C151.7,118.4,149.8,120.2,147.5,120.2z M137.6,76.3c-0.9,0-1.7,0.7-1.7,1.5v38.3c0,0.9,0.8,1.5,1.7,1.5h9.8
				c0.9,0,1.7-0.7,1.7-1.5V77.8c0-0.9-0.8-1.5-1.7-1.5L137.6,76.3L137.6,76.3z"/>
		</g>
		<g>
			<path class="st0" d="M148.2,76.3h-11.4c-0.7,0-1.2-0.6-1.2-1.2v-9.3c0-0.7,0.6-1.2,1.2-1.2h11.4c0.7,0,1.2,0.6,1.2,1.2v9.3
				C149.5,75.7,148.9,76.3,148.2,76.3z M138,73.8h8.9V67H138V73.8z"/>
		</g>
	</g>
	<g>
		<g>
			<path class="st0" d="M123.2,120.2H92c-2.7,0-4.9-2.2-4.9-4.9V87.7c0-2.7,2.2-4.9,4.9-4.9h31.3c2.7,0,4.9,2.2,4.9,4.9v27.7
				C128.1,118,125.9,120.2,123.2,120.2z M92,85.3c-1.3,0-2.4,1.1-2.4,2.4v27.7c0,1.3,1.1,2.4,2.4,2.4h31.3c1.3,0,2.4-1.1,2.4-2.4
				V87.7c0-1.3-1.1-2.4-2.4-2.4L92,85.3L92,85.3z"/>
		</g>
		<g>
			<path class="st0" d="M126.9,94.8H88.3c-0.7,0-1.2-0.6-1.2-1.2s0.6-1.2,1.2-1.2h38.5c0.7,0,1.2,0.6,1.2,1.2S127.5,94.8,126.9,94.8
				z"/>
		</g>
		<g>
			<path class="st0" d="M126.9,113.8h-17.4c-0.7,0-1.2-0.6-1.2-1.2V97.4c0-0.7,0.6-1.2,1.2-1.2h17.4c0.7,0,1.2,0.6,1.2,1.2v15.2
				C128.1,113.2,127.5,113.8,126.9,113.8z M110.7,111.3h14.9V98.6h-14.9V111.3z"/>
		</g>
	</g>
</g>
</svg>
